<?xml version="1.0" encoding="UTF-8"?>
<svg id="Calque_1" data-name="Calque 1" xmlns="http://www.w3.org/2000/svg" viewBox="0 0 2252.25 1195.3">
  <defs>
    <style>
      .cls-1 {
        fill: #1c1b39;
      }

      .cls-2 {
        fill: #ea5839;
      }
    </style>
  </defs>
  <g>
    <path class="cls-1" d="M216.28,1065.31v62.57h-24.99v-57.57c0-27.95,14.07-41.84,42.02-41.84,12.59,0,22.22,2.78,29.25,8.33,7.03-5.37,16.66-7.96,29.25-7.96,27.95,0,41.84,13.88,41.65,41.84v57.57h-12.77c-8.15-.55-12.22-4.44-12.22-12.22v-50.35c-.56-10.18-6.11-15.18-17.03-15.18s-16.48,5-16.66,15.18v62.2h-24.81v-62.57c-.56-10.18-6.11-15.18-17.03-15.18s-16.48,5-16.66,15.18Z"/>
    <path class="cls-1" d="M433.98,1079.38c0,33.69-15,50.72-44.61,50.72s-44.43-17.03-44.43-50.72,14.81-50.91,44.43-50.91,44.61,16.85,44.61,50.91ZM369.93,1079.38c.19,19.07,6.66,28.69,19.25,28.69s18.88-10,19.07-29.43c0-19.07-6.29-28.51-18.88-28.51s-19.44,9.81-19.44,29.25Z"/>
    <path class="cls-1" d="M514.69,1127.88c-8.15-.56-12.22-4.44-12.22-12.22v-50.35c-.56-10.18-6.11-15.18-17.03-15.18s-16.48,5-16.66,15.18v62.57h-24.99v-57.57c0-27.95,14.07-41.84,42.02-41.84s41.65,13.88,41.47,41.84v57.57h-12.59Z"/>
    <path class="cls-1" d="M609.2,1130.11c-29.62,0-44.8-17.03-45.54-50.72,0-33.51,15-50.35,45.17-50.91,23.7,0,37.77,10.55,42.02,31.84h-26.84c-2.96-6.66-8.15-10.18-15.92-10.18-12.96,0-19.44,9.81-19.44,29.25s6.85,29.25,20.55,29.06c5.74,0,10.74-2.41,14.81-7.03,2.41-2.41,5.18-3.52,8.33-3.52h18.51c-4.44,19.99-18.88,32.77-41.65,32.21Z"/>
    <path class="cls-1" d="M750.08,1079.38c0,33.69-15,50.72-44.62,50.72s-44.43-17.03-44.43-50.72,14.81-50.91,44.43-50.91,44.62,16.85,44.62,50.91ZM686.02,1079.38c.19,19.07,6.66,28.69,19.25,28.69s18.88-10,19.07-29.43c0-19.07-6.29-28.51-18.88-28.51s-19.44,9.81-19.44,29.25Z"/>
    <path class="cls-1" d="M785.24,1055.5h-24.62c2.96-18.14,15.74-27.03,38.32-27.03,27.03,0,40.73,8.89,41.28,27.03v33.32c0,27.03-16.29,39.06-42.76,40.91-23.51,1.85-39.8-9.07-39.8-30.73.55-23.51,17.59-29.8,42.39-32.21,10.55-1.3,15.92-4.44,15.92-9.81-.55-5.55-5.74-8.33-15.92-8.33-8.7,0-13.51,2.22-14.81,6.85ZM816.34,1087.71v-9.07c-5.74,2.41-12.4,4.44-19.62,5.92-9.81,1.85-14.81,6.48-14.81,13.7.55,7.78,4.63,11.48,12.4,11.48,13.7,0,22.03-8.15,22.03-22.03Z"/>
    <path class="cls-1" d="M894.83,1130.11c-29.62,0-44.8-17.03-45.54-50.72,0-33.51,15-50.35,45.17-50.91,23.7,0,37.76,10.55,42.02,31.84h-26.84c-2.96-6.66-8.15-10.18-15.92-10.18-12.96,0-19.44,9.81-19.44,29.25s6.85,29.25,20.55,29.06c5.74,0,10.74-2.41,14.81-7.03,2.41-2.41,5.18-3.52,8.33-3.52h18.51c-4.44,19.99-18.88,32.77-41.65,32.21Z"/>
    <path class="cls-1" d="M992.94,1050.5c-14.63,0-20.92,12.22-20.92,27.21v50.17h-24.62v-125.88h12.4c8.15,0,12.22,4.26,12.22,12.4v29.25c12.59-14.44,27.95-18.51,46.28-12.03,13.7,5,20.18,18.14,19.44,39.43v56.83h-24.44v-50.17c0-16.48-6.29-27.21-20.36-27.21Z"/>
  </g>
  <path class="cls-2" d="M1171.98,1034.52h-41.04v101.29h-46.1v-204.26c0-13.12,10.43-24.56,23.55-24.56h100.86v39.71h-78.31v49.13h65.6v15.14c0,13.12-11.44,23.55-24.56,23.55Z"/>
  <path class="cls-2" d="M1252.68,906.98c14.81,0,21.87,7.4,21.54,21.87v18.1h-44.75v-39.98h23.22ZM1252.68,964.77c14.47,0,21.54,7.07,21.54,21.54v149.5h-44.75v-171.04h23.22Z"/>
  <path class="cls-2" d="M1355.33,989.76h-12.68v100.59c0,7.4,4.37,11.44,13.12,11.44h18.78v33.99c-14.47,1.35-35.27,1.35-52.09-.34-16.82-1.68-24.9-12.11-24.56-31.97v-196.49h23.22c11.78,0,21.54,10.77,21.54,22.55v28.27h34.89v9.76c0,12.79-9.76,22.21-22.21,22.21Z"/>
  <path class="cls-2" d="M1524.34,1135.8c-14.81-1.01-22.21-8.08-22.21-22.21v-91.53c-1.01-18.51-11.1-27.59-30.96-27.59s-29.95,9.09-30.29,27.59v113.74h-45.43v-104.65c0-50.81,25.57-76.05,76.39-76.05s75.71,25.24,75.38,76.05v104.65h-22.88Z"/>
  <path class="cls-2" d="M1642.1,1139.84c-53.84-1.68-80.76-32.98-80.76-93.55s27.26-90.86,81.43-91.19c56.53,0,83.12,34.66,79.75,104.32h-115.08c1.68,27.26,13.46,41.05,35.33,41.05,10.43,0,20.19-4.37,28.94-12.79,4.04-4.37,9.09-6.39,15.14-6.39h32.98c-9.76,37.69-33.99,58.55-77.73,58.55ZM1608.11,1027.45h66.96c-2.69-23.56-13.8-35.67-32.98-35.67s-30.62,12.11-33.99,35.67Z"/>
  <path class="cls-2" d="M1817.41,1103.5c18.84,0,28.27-5.38,28.27-16.83,0-9.09-15.48-16.49-46.1-21.87-39.37-7.07-59.56-24.56-59.9-52.49,0-38.36,30.29-56.53,71-57.21,22.88,0,41.05,5.05,54.51,15.14,13.12,10.43,20.19,24.9,21.2,43.41h-28.27c-10.43-.34-17.16-4.04-19.85-11.1-3.03-7.74-12.11-12.11-26.92-12.11-17.5,0-26.25,4.71-26.25,13.8s11.44,16.15,34.66,20.53c30.29,6.06,50.14,13.8,59.9,22.88,8.41,8.75,12.45,19.52,12.45,31.63,0,43.75-34.32,59.9-81.43,59.9-24.9,0-43.74-5.38-55.86-15.82-13.46-10.1-20.19-25.57-20.19-46.1h45.76c1.01,19.52,15.14,26.25,37.02,26.25Z"/>
  <path class="cls-2" d="M1984.63,1103.5c18.84,0,28.27-5.38,28.27-16.83,0-9.09-15.48-16.49-46.1-21.87-39.37-7.07-59.56-24.56-59.9-52.49,0-38.36,30.29-56.53,71-57.21,22.88,0,41.05,5.05,54.51,15.14,13.12,10.43,20.19,24.9,21.2,43.41h-28.27c-10.43-.34-17.16-4.04-19.85-11.1-3.03-7.74-12.11-12.11-26.92-12.11-17.5,0-26.25,4.71-26.25,13.8s11.44,16.15,34.66,20.53c30.29,6.06,50.14,13.8,59.9,22.88,8.41,8.75,12.45,19.52,12.45,31.63,0,43.75-34.32,59.9-81.43,59.9-24.9,0-43.74-5.38-55.86-15.82-13.46-10.1-20.19-25.57-20.19-46.1h45.76c1.01,19.52,15.14,26.25,37.02,26.25Z"/>
  <rect class="cls-1" x="191.29" y="944.53" width="848.57" height="10.57"/>
  <g>
    <path class="cls-1" d="M399.88,94.74v317.94h-68.76V61.14h35.67c18.09,0,33.09,15.51,33.09,33.6Z"/>
    <path class="cls-1" d="M517.78,236.91c0-107.53,63.59-181.46,168.02-181.46s168.53,74.96,168.53,181.46-61.52,180.94-168.53,180.94-168.02-73.41-168.02-180.94ZM589.64,236.91c0,68.76,30.5,120.46,96.16,120.46s96.67-49.63,96.67-120.46-31.02-118.9-96.67-118.9-96.16,50.66-96.16,118.9Z"/>
    <path class="cls-1" d="M875.75,271.55c2.07-88.4,49.11-132.35,140.62-132.35h9.82v71.34h-23.26c-38.26,0-57.38,20.16-57.38,59.97v142.17h-69.79v-141.13Z"/>
    <path class="cls-1" d="M1116.88,210.55h-68.76c8.27-50.66,43.94-75.48,107.01-75.48,75.48,0,113.73,24.81,115.29,75.48v93.06c0,75.48-45.49,109.08-119.42,114.25-65.66,5.17-111.15-25.33-111.15-85.82,1.55-65.66,49.11-83.23,118.39-89.95,29.47-3.62,44.46-12.41,44.46-27.4-1.55-15.51-16.03-23.26-44.46-23.26-24.3,0-37.74,6.2-41.36,19.13ZM1203.74,300.5v-25.33c-16.03,6.72-34.64,12.41-54.8,16.54-27.4,5.17-41.36,18.09-41.36,38.26,1.55,21.71,12.92,32.05,34.64,32.05,38.26,0,61.52-22.75,61.52-61.52Z"/>
    <path class="cls-1" d="M1485.89,412.68c-22.75-1.55-34.12-12.41-34.12-34.12v-140.62c-1.55-28.43-17.06-42.39-47.56-42.39s-46.01,13.96-46.53,42.39v174.74h-69.79v-160.78c0-78.06,39.29-116.84,117.35-116.84s116.32,38.77,115.8,116.84v160.78h-35.15Z"/>
    <path class="cls-1" d="M1539.49,276.2c0-90.99,42.39-136.48,127.18-138.03,85.3-.52,128.21,39.81,128.21,122.01v161.81c0,68.76-43.43,103.4-130.8,104.95-62.04,0-101.33-28.95-117.35-86.85h76c4.65,19.64,20.68,28.95,49.11,28.95,36.19,0,54.8-21.2,54.8-63.59,0,0,0,.52,0-27.92-17.58,26.88-43.94,40.32-78.06,40.32-72.89,0-109.08-47.56-109.08-141.65ZM1726.63,278.27c.52-55.32-18.61-82.72-57.9-82.72s-58.42,27.4-58.42,82.72c1.55,52.73,20.16,79.1,57.38,79.1s56.87-26.37,58.93-79.1Z"/>
    <path class="cls-1" d="M1936.97,418.89c-82.72-2.58-124.07-50.66-124.07-143.72s41.88-139.58,125.11-140.1c86.85,0,127.69,53.25,122.52,160.26h-176.8c2.58,41.88,20.68,63.07,54.28,63.07,16.03,0,31.02-6.72,44.46-19.64,6.2-6.72,13.96-9.82,23.26-9.82h50.66c-14.99,57.9-52.22,89.95-119.42,89.95ZM1884.76,246.22h102.88c-4.13-36.19-21.2-54.8-50.66-54.8s-47.04,18.61-52.22,54.8Z"/>
    <path class="cls-1" d="M943.09,604.23c17.58-28.43,43.42-42.39,77.55-42.39,72.89,2.58,109.08,50.15,109.08,143.2s-42.39,137-127.17,138.55c-85.3.52-128.21-40.32-128.21-122.52v-233.16h34.64c22.75,0,34.12,11.89,34.12,34.64v81.68ZM943.09,701.94c-.52,55.32,18.09,83.23,57.38,83.23s58.94-27.92,58.94-83.23c-1.55-52.73-20.68-78.58-57.9-78.58s-56.35,25.85-58.42,78.58Z"/>
    <path class="cls-1" d="M1238.24,521.52v317.94h-68.76v-351.54h35.67c18.09,0,33.09,15.51,33.09,33.6Z"/>
    <path class="cls-1" d="M1392.65,845.66c-82.72-2.58-124.08-50.66-124.08-143.72s41.88-139.58,125.11-140.1c86.85,0,127.69,53.25,122.52,160.26h-176.8c2.58,41.88,20.68,63.07,54.28,63.07,16.03,0,31.02-6.72,44.46-19.64,6.21-6.72,13.96-9.82,23.27-9.82h50.67c-14.99,57.9-52.22,89.95-119.42,89.95ZM1340.44,672.99h102.88c-4.14-36.19-21.2-54.8-50.66-54.8s-47.05,18.61-52.22,54.8Z"/>
    <path class="cls-1" d="M1779.5,730.38c0,47.04-11.89,78.06-36.19,93.06-24.3,13.96-51.18,21.2-80.65,21.2s-53.77-7.75-77.55-23.26c-23.78-14.99-35.67-44.98-35.67-90.99v-164.4h68.76v178.36c0,30.5,15.51,45.49,46.53,45.49s46.53-14.99,46.53-45.49v-144.24c-.52-22.75,10.34-34.12,33.09-34.12h35.15v164.4Z"/>
    <path class="cls-1" d="M1934.05,845.66c-82.72-2.58-124.08-50.66-124.08-143.72s41.88-139.58,125.11-140.1c86.85,0,127.69,53.25,122.52,160.26h-176.8c2.58,41.88,20.68,63.07,54.28,63.07,16.03,0,31.02-6.72,44.46-19.64,6.21-6.72,13.96-9.82,23.27-9.82h50.67c-14.99,57.9-52.22,89.95-119.42,89.95ZM1881.83,672.99h102.88c-4.14-36.19-21.2-54.8-50.66-54.8s-47.05,18.61-52.22,54.8Z"/>
    <path class="cls-1" d="M498.37,61.56h-50.47l-15.58,81.07h69.51l12.16-61.18s4.12-18.54-15.62-19.89Z"/>
    <g>
      <path class="cls-1" d="M342.44,755.15c6.3,3.63,12.32,7.71,18.03,12.21-6.98-21.85-22.54-39.92-43.11-50.07-32.78-17.55-66.85-13.9-126.07,5.33,27.99,14.99,38.62,54.17,86.76,71.47,26.14,9.29,55.1,6.12,78.62-8.6-7.2-9.37-16.35-17.07-26.81-22.57-9.17-5.36-32.89-16.7-72.4-24.8,0,0,54.41-.83,84.98,17.03Z"/>
      <path class="cls-1" d="M390.77,495.74l34.02,17.29c1.76.83,4.38.16,5.77-1.47l26.73-32.76c.96-1.11-.36-1.55-3.78-.95-7.43,1.25-16.37,2.99-29.92,6.45-13.55,3.46-21.82,5.94-29.18,8.6-.25.11-2.14.69-3.37,1.57-.73.53-.88.99-.28,1.27Z"/>
      <path class="cls-1" d="M329.45,526.35l88.37-9.79c3.97-.47,5.76-1.54,3.99-2.36l-37.39-16.14c-1.2-.57-3.92-.24-7.09,1.02-7.18,2.77-15.52,6.24-26.67,11.89-11.63,5.9-18.05,9.71-22.77,13.28-.1.13-1.6,1.03-1.27,1.73.2.41,1.15.57,2.82.38Z"/>
      <path class="cls-1" d="M416.76,519.81c3.95-1.55,3.87-2.42-.13-1.94l-91.24,11.64c-3.39.41-6.92,1.66-8.79,3.31-4.48,3.78-9.08,8.31-12.62,14.72-3.8,6.89-4.36,10.86-2.62,13.94.18.08.1,1.02,2.67.95,1.52-.04,3.65-.54,6.02-1.47l106.72-41.15Z"/>
      <path class="cls-1" d="M418.13,520.52l-106.29,43.11c-4.81,1.92-7.51,4.05-6.1,5.33,2.83,3.05,7.62,6.28,19.61,9.12,12.76,3.02,22.8,3.79,34.02,3.11.49-.09,2.91.05,6.81-1.43,2.29-.87,4.35-2.13,5.62-3.56l50.72-55.35c1.54-1.76-.43-1.9-4.38-.33Z"/>
      <path class="cls-1" d="M488.33,548.3l-56.54-29.37c-1.87-.9-4.58-.21-6.06,1.54l-44.25,55.03c-2.42,2.89-1.03,4.65,4.42,4,12-1.24,26.97-3.48,50.2-9.42,23.22-5.93,37.02-10.56,48.59-15.71.36-.23,3.39-1.27,4.7-3.17.76-1.11.47-2.17-1.05-2.91Z"/>
      <path class="cls-1" d="M555.3,503.31c-1.18-.42-3.15-.54-5.65-.25l-110.8,12.17c-4.12.48-5.91,1.58-3.98,2.46l62.64,26.48c3.17,1.42,8.13,1.11,12.53-1.18,9.8-4.88,20.2-10.8,31.12-19.88,10.25-8.52,14.25-13.55,15.41-17.87-.08-.14.73-1.2-1.29-1.93Z"/>
      <path class="cls-1" d="M552.44,484.27c-5.15-4.19-9.81-6.18-15.68-7.36-.29-.01-1.31-.43-4.13-.12-1.65.18-3.49.61-5.13,1.26l-87.99,34c-3.85,1.52-3.68,2.36.42,1.86l110.65-14.2c4.92-.6,8.45-2,8.34-3.62.11-3.51-.94-7.31-6.48-11.82Z"/>
      <path class="cls-1" d="M438.03,511.41l84.8-34.31c3.21-1.27,3.93-2.38,1.23-2.71-5.6-.8-12.76-1.41-25.25-1.15-11.97.25-19.89.89-27.75,2.04-.31.07-2.06.22-4.33.99-1.34.45-2.41,1.01-2.89,1.57l-30.18,33.34c-1.41,1.64.56,1.75,4.37.23Z"/>
      <path class="cls-1" d="M778.95,590.79c-42.02-44.57-100.38-68.53-153.37-64.73-1.11-6.35-2.56-12.56-4.38-18.56-3.26-10.73-8.1-20.26-12.79-25.59-.03.03-.06.06-.08.09-2.62-3.38-6.28-6.46-11.02-9.16-31.56-17.95-106.15-14.47-174.91,3.04-68.76,17.51-138.99,50.9-163.25,83.07-8.1,10.74-10.77,20.61-8.42,29.05-.02,0-.05-.01-.07-.02,0,0,40.26,174.88,204.32,161.77,11.99-.96,23.2-3.02,33.49-5.71-19.04-64.86,3.65-143.26,51.05-178.37,2.37-1.09-2.26,1.1,0,0-52.57,55.63-48.76,155.06,22.02,230.13,79.15,83.95,193.63,86.09,247.43,15.61,46.43-60.83,30.56-156.4-29.99-220.63ZM437.61,580.45c-110.91,28.24-173.74,8.36-150.31-28.66,16.81-26.55,75.89-55.49,135.82-70.76,59.94-15.26,122.92-17.4,145.98-1,32.16,22.86-20.59,72.18-131.5,100.42ZM788.23,789.46c-45.6,56.53-139.31,52.79-203.63-15.42-64.31-68.21-62.55-161.98-3.43-204.18,52.29-37.33,132.17-20.32,183.64,34.27,51.47,54.59,63.76,135.33,23.43,185.33Z"/>
      <path class="cls-1" d="M574.55,616.44l99.8,55.98c3.97,2.14,5.66.57,3.78-3.48l-46.51-95.86c-1.77-3.8-5.16-5.92-8.77-4.81-8.19,2.18-17.56,5.77-29.42,14.57-12.18,9.04-18.42,16.09-22.43,24.07-.05.35-1.46,2.02-.52,4.98.56,1.75,1.96,3.4,4.07,4.55Z"/>
      <path class="cls-1" d="M673.7,681.05c3.78-1.07,3.59-3.67-.4-5.78l-102.06-51.89c-4.28-2.26-8.17-1.65-9.49,2.22-3.27,8.47-6.07,19.2-6.01,36.72.06,17.88,2.13,29.21,6.32,39.54.26.36.79,2.95,3.81,4.86,1.78,1.12,4,1.5,6.23.87l101.58-26.54Z"/>
      <path class="cls-1" d="M675.17,684.25l-99.38,32.03c-4.45,1.34-6.31,4.9-3.94,9.32,4.93,9.91,11.91,21.3,25.88,36.06,13.97,14.76,23.83,22.4,34.03,27.55.42.09,2.66,1.77,5.8,1.01,1.84-.45,3.39-1.81,4.18-3.99l37.81-97.33c1.34-3.69-.63-5.77-4.39-4.65Z"/>
      <path class="cls-1" d="M688.42,691.29c-1.87-4.11-4.45-4.44-5.75-.74l-32.46,99.84c-1.52,4.38.04,8.59,4.59,10.28,9.88,4.06,21.8,7.69,39.65,8.72,17.48,1.01,27.78-.36,36.52-3.82.28-.23,2.54-.58,3.69-3.38.67-1.65.59-3.77-.42-5.97l-45.81-104.93Z"/>
      <path class="cls-1" d="M787.96,738.92l-92.96-52.06c-3.93-2.12-5.6-.52-3.7,3.56l50.03,102.91c2.04,4.36,5.54,6.38,8.97,4.43,7.64-3.95,16-9.61,25.68-21.3,9.43-11.37,13.76-19.52,16.03-28.16,0-.37.92-2.19-.21-5.11-.66-1.72-2-3.28-3.85-4.28Z"/>
      <path class="cls-1" d="M796.96,694.75c-2.18-15.56-4.99-25.14-9.17-33.76-.23-.3-.89-2.44-3.29-4.07-1.42-.96-3.09-1.33-4.66-.87l-84.31,22.24c-3.67,1.06-3.47,3.63.46,5.72l93.79,47.78c3.68,1.95,6.66,1.1,7.2-2.76,1.44-8.29,2.21-18.43-.01-34.28Z"/>
      <path class="cls-1" d="M694.06,675.14l82.21-26.28c3.14-.92,4.14-3.7,1.99-7.3-4.52-7.99-10.62-17.16-22.09-29.3-11.47-12.13-19.43-18.66-27.58-23.43-.33-.11-2.16-1.57-4.6-1.33-1.44.14-2.62,1-3.17,2.54l-31.07,80.53c-1.29,3.59.65,5.65,4.31,4.57Z"/>
      <path class="cls-1" d="M681.02,668.13c1.85,4.05,4.41,4.4,5.68.8l27.15-82.86c1.1-3.09-.29-6.36-4.02-8.11-8.19-4.12-18.21-8.23-33.61-11.26-15.68-3.08-25.28-3.45-33.74-1.97-.28.14-2.49.1-3.74,2.15-.74,1.22-.77,2.92.09,4.81l42.19,96.44Z"/>
    </g>
  </g>
</svg>